<?xml version="1.0" encoding="UTF-8"?>
<svg id="Phone" xmlns="http://www.w3.org/2000/svg" viewBox="0 0 6 6">
  <defs>
    <style>
      .cls-1 {
        fill: #fff;
        stroke: #7c8a42;
        stroke-miterlimit: 10;
        stroke-width: .1px;
      }

      .cls-2 {
        fill: #b4c978;
      }
    </style>
  </defs>
  <rect class="cls-2" x="-.07" y="-.07" width="6.15" height="6.15"/>
  <path class="cls-1" d="M2.26,2.45c-.06.3.18.57.66,1.12.4.46.65.75.91.7.27-.05.33-.42.56-.4.07,0,.18.13.38.37.25.29.37.44.37.51-.02.23-.47.39-.79.43-.56.07-1.01-.18-1.29-.34-.54-.31-.88-.73-1-.9-.06-.08-.66-.91-.68-1.91,0-.42.09-.67.16-.8.07-.12.23-.44.48-.38.05.01.12.03.39.33.24.27.36.41.37.49.04.32-.45.41-.52.8Z"/>
</svg>