<?xml version="1.0" encoding="UTF-8"?>
<svg id="Logo_-_Color" data-name="Logo - Color" xmlns="http://www.w3.org/2000/svg" viewBox="0 0 714.49 242.63">
  <defs>
    <style>
      .cls-1 {
        fill: #7c8942;
      }

      .cls-2 {
        fill: #75435e;
      }

      .cls-3 {
        fill: #b19a81;
      }

      .cls-4 {
        fill: #b3c878;
      }

      .cls-5 {
        fill: #735d4a;
      }

      .cls-6 {
        fill: #e099c1;
      }
    </style>
  </defs>
  <path class="cls-3" d="M602.42,106.17c0,1.86-85.79,3.7-159.13,3.69-73.04,0-158.22-1.84-158.23-3.69,0-1.85,85.1-3.69,158.07-3.7,73.48,0,159.28,1.83,159.28,3.7Z"/>
  <g>
    <path class="cls-2" d="M621.01,112.71c-.13.06-8.61-10.18-5.33-19.98,2.24-6.71,8.8-10.18,11.84-11.39,7.35-2.91,15.39-3.15,23.23-2.76,7.84.39,15.68,1.39,23.51.81,7.83-.57,15.82-2.88,21.77-8.28,5.95-5.4,9.42-14.35,7.08-22.26-2.01-6.82-7.92-11.78-14.35-13.99-5.08-1.75-10.55-2.04-15.6-3.9-5.05-1.85-9.96-5.95-10.53-11.56-.54-5.4,3.2-10.44,7.75-12.98,4.21-2.35,7.65-3.24,14.87-4.01,9.86-1.05,20.3-.54,20.44.98.1,1.06-4.67,1.39-10.18,5.35-3.14,2.26-5.84,5.54-6.49,9.49-1.08,6.64,3.78,12.66,8.78,16.85,5,4.19,10.81,8.14,12.93,14.5,1.92,5.75.22,12.33-3.19,17.25-3.39,4.88-7.54,8.52-13.37,11.4-21.13,10.41-51.57,9.41-64.55,12.29-1.4.31-4.28,1.04-6.85,3.35-.54.48-3.1,2.86-4.06,6.68-1.61,6.37,2.38,12.14,2.28,12.18Z"/>
    <path class="cls-6" d="M637.56,75.45c-.53,1.03-9.92-.03-14.44-6.53-2.86-4.11-2.51-8.81-2.39-10.8.12-2.02.66-5.83,3.05-9.54,5.15-8,14.9-9.27,16.41-9.44,10.02-1.15,10.62,5.35,21.86,5.12,3.95-.08,4.51-.9,20.66-2.91,2.16-.27,5.36-.54,8.77.99,2.9,1.3,6.57,4.61,6.09,7.37-.84,4.81-13.97,5.91-14.85,5.98-11.38.87-13.78-3.87-26.42-3.98-5.17-.05-12.57-.01-18.69,4.92-.79.64-7.39,6.1-6.29,11.61.92,4.62,6.7,6.35,6.25,7.21Z"/>
    <path class="cls-6" d="M711.34,98.12c.68-1.77,2.51-6.68,1.24-12.71-.62-2.95-2.7-9.6-5.61-9.67-3.01-.07-3.4,6.9-10.01,15.3-2.01,2.56-6.32,8.03-13.45,10.66-6.65,2.44-12.96,1.38-20.18.17-5.65-.95-6.44-1.85-13.53-2.83-3.96-.55-8.44-.93-13.68.21-4.22.91-5.89,2.15-6.87,3.11-.66.64-3.41,3.31-3.04,6.99.29,2.87,2.31,4.68,3.2,5.48,2.49,2.23,5.5,2.81,7.7,3.01,9.36.84,14.06-4.73,23.4-5.77,10.96-1.22,12.03,5.61,24.63,4.3,9.1-.95,15.09-5.19,16.6-6.32,2.36-1.75,7.06-5.35,9.61-11.94Z"/>
  </g>
  <g>
    <path class="cls-4" d="M336.7,70.05c0,3.09.56,5.31,1.68,6.66,1.12,1.35,2.35,2.37,3.7,3.07,1.35.69,2.58,1.33,3.71,1.91,1.12.58,1.68,1.64,1.68,3.18,0,1.08-.46,1.99-1.39,2.72-.93.74-2.05,1.1-3.36,1.1h-33c-1.31,0-2.43-.37-3.36-1.1-.93-.73-1.39-1.64-1.39-2.72,0-1.54.56-2.6,1.68-3.18,1.12-.58,2.35-1.22,3.7-1.91,1.35-.69,2.58-1.72,3.71-3.07,1.12-1.35,1.68-3.57,1.68-6.66V8.8h-6.6c-4.09,0-7.43,1.04-10.01,3.13-2.59,2.08-4.84,5.56-6.77,10.42-.77,1.85-2.12,2.78-4.05,2.78-1.24,0-2.08-.35-2.55-1.04-.46-.69-.69-1.39-.69-2.08,0-.46.08-1,.23-1.62l3.47-15.05c.23-1.08.73-1.93,1.51-2.55.77-.62,1.7-.93,2.78-.93h66.34c1.08,0,2.01.31,2.78.93.77.62,1.27,1.47,1.51,2.55l3.47,15.05c.15.62.23,1.16.23,1.62,0,.7-.23,1.39-.69,2.08-.46.7-1.31,1.04-2.55,1.04-1.93,0-3.28-.93-4.05-2.78-1.93-4.86-4.19-8.34-6.77-10.42-2.59-2.08-5.92-3.13-10.01-3.13h-6.6v61.25Z"/>
    <path class="cls-4" d="M420.99,28.48c2.7,0,5.23.41,7.58,1.22,2.35.81,4.4,1.93,6.14,3.36,1.74,1.43,3.12,3.09,4.17,4.98,1.04,1.89,1.56,3.96,1.56,6.19,0,1.54-.27,2.89-.81,4.05-.54,1.16-1.27,2.14-2.2,2.95-.93.81-1.97,1.43-3.13,1.85-1.16.43-2.35.64-3.59.64-1.7,0-3.3-.41-4.8-1.21-1.51-.81-2.68-2.06-3.53-3.76-.54-1.16-.97-2.39-1.27-3.7-.31-1.31-.7-2.55-1.16-3.71s-1.1-2.12-1.91-2.89c-.81-.77-2.07-1.16-3.76-1.16-2.08,0-3.92.6-5.5,1.79-1.58,1.2-2.93,2.68-4.05,4.46-1.12,1.78-1.95,3.74-2.49,5.9-.54,2.16-.81,4.25-.81,6.25v14.36c0,3.09.56,5.31,1.68,6.66,1.12,1.35,2.35,2.37,3.71,3.07,1.35.69,2.59,1.33,3.71,1.91,1.12.58,1.68,1.64,1.68,3.18,0,1.08-.46,1.99-1.39,2.72-.93.74-2.04,1.1-3.36,1.1h-33c-1.31,0-2.43-.37-3.36-1.1-.93-.73-1.39-1.64-1.39-2.72,0-1.54.56-2.6,1.68-3.18,1.12-.58,2.35-1.22,3.71-1.91,1.35-.69,2.58-1.72,3.71-3.07,1.12-1.35,1.68-3.57,1.68-6.66v-20.61c0-3.4-.5-5.77-1.5-7.12-1-1.35-2.1-2.35-3.3-3.01-1.2-.65-2.3-1.22-3.3-1.68-1-.46-1.5-1.46-1.5-3.01,0-1.08.46-1.99,1.39-2.72.93-.73,2.04-1.1,3.36-1.1h19.8c4.01,0,6.02,2.08,6.02,6.25.08,0,.58-.44,1.5-1.33.93-.89,2.22-1.87,3.88-2.95,1.66-1.08,3.69-2.06,6.08-2.95,2.39-.89,5.09-1.33,8.11-1.33Z"/>
    <path class="cls-4" d="M520.44,70.05c0,3.09.56,5.31,1.68,6.66,1.12,1.35,2.35,2.37,3.71,3.07,1.35.69,2.58,1.33,3.71,1.91,1.12.58,1.68,1.64,1.68,3.18,0,1.08-.46,1.99-1.39,2.72-.93.74-2.05,1.1-3.36,1.1h-20.96c-4.01,0-6.02-2.08-6.02-6.25-.08,0-.62.45-1.62,1.33-1,.89-2.45,1.87-4.34,2.95-1.89,1.08-4.21,2.06-6.95,2.95-2.74.89-5.89,1.33-9.44,1.33-7.64,0-13.49-2.37-17.54-7.12-4.05-4.75-6.08-11.6-6.08-20.55v-13.89c0-3.4-.5-5.77-1.51-7.12-1-1.35-2.1-2.35-3.3-3.01-1.2-.65-2.3-1.22-3.3-1.68-1-.46-1.5-1.46-1.5-3.01,0-1.08.46-1.99,1.39-2.72.93-.73,2.04-1.1,3.36-1.1h19.8c4.01,0,6.02,2.08,6.02,6.25v25.47c0,12.97,3.63,19.45,10.88,19.45,2.01,0,3.86-.46,5.56-1.39,1.7-.93,3.18-2.22,4.46-3.88,1.27-1.66,2.28-3.61,3.01-5.85.73-2.24,1.1-4.67,1.1-7.29v-14.12c0-3.4-.5-5.77-1.51-7.12-1-1.35-2.1-2.35-3.3-3.01-1.2-.65-2.3-1.22-3.3-1.68-1-.46-1.5-1.46-1.5-3.01,0-1.08.46-1.99,1.39-2.72.93-.73,2.04-1.1,3.36-1.1h19.8c4.01,0,6.02,2.08,6.02,6.25v33Z"/>
    <path class="cls-4" d="M598.59,73.64c.62-.77,1.29-1.35,2.03-1.74.73-.38,1.45-.58,2.14-.58.85,0,1.54.23,2.08.69.69.62,1.04,1.39,1.04,2.32s-.31,1.85-.93,2.78c-3.09,4.48-7.22,7.91-12.39,10.3-5.17,2.39-11.04,3.59-17.6,3.59-5.79,0-11.06-.79-15.8-2.37s-8.8-3.76-12.16-6.54-5.96-6.08-7.82-9.9c-1.85-3.82-2.78-8.01-2.78-12.56s.91-8.72,2.72-12.5c1.81-3.78,4.36-7.06,7.64-9.84,3.28-2.78,7.25-4.94,11.93-6.48,4.67-1.54,9.86-2.32,15.57-2.32,9.57,0,17.13,2.61,22.69,7.82,5.56,5.21,8.49,12.49,8.8,21.82h-47.12c.08,2.93.56,5.81,1.45,8.63.89,2.82,2.24,5.33,4.05,7.53,1.81,2.2,4.13,3.98,6.95,5.33,2.82,1.35,6.23,2.03,10.25,2.03,3.47,0,6.71-.69,9.73-2.08,3.01-1.39,5.52-3.36,7.53-5.9ZM586.54,51.76c-.16-5.09-1.35-9.18-3.59-12.27-2.24-3.09-5.09-4.63-8.57-4.63-4.09,0-7.47,1.58-10.13,4.75-2.66,3.17-4.38,7.22-5.15,12.16h27.44Z"/>
  </g>
  <g>
    <path class="cls-5" d="M1.48,137.91c0-5.71,1.06-11.33,3.18-16.85,2.12-5.52,5.33-10.42,9.61-14.7,4.28-4.28,9.61-7.74,15.98-10.36,6.37-2.62,13.83-3.94,22.4-3.94,4.79,0,9.22.45,13.31,1.33,4.09.89,7.68,2.1,10.77,3.65,3.09,1.54,5.57,3.38,7.47,5.5,1.89,2.12,2.95,4.42,3.18,6.89.08.46.12.89.12,1.27,0,1.16-.19,2.33-.58,3.53-.39,1.2-1.04,2.32-1.97,3.36-.93,1.04-2.05,1.87-3.36,2.49-1.31.62-2.74.93-4.28.93-1.93,0-3.53-.41-4.8-1.22-1.27-.81-2.32-1.74-3.13-2.78-.81-1.04-1.43-2.12-1.85-3.24-.43-1.12-.71-1.95-.87-2.49-2.08-8.26-7.18-12.39-15.28-12.39-3.78,0-7.29.87-10.54,2.61-3.24,1.74-6.04,4.17-8.39,7.29-2.36,3.13-4.21,6.79-5.56,11-1.35,4.21-2.03,8.82-2.03,13.83,0,5.79.85,11.1,2.55,15.92,1.7,4.82,4.09,8.97,7.18,12.45,3.09,3.47,6.79,6.16,11.11,8.05,4.32,1.89,9.07,2.84,14.24,2.84,4.86,0,9.24-.79,13.14-2.37,3.9-1.58,6.73-3.72,8.51-6.43.85-1.31,1.64-2.12,2.37-2.43.73-.31,1.33-.46,1.79-.46.39,0,.77.08,1.16.23.93.46,1.39,1.24,1.39,2.32,0,1.24-.66,2.86-1.97,4.86-3.01,4.71-7.6,8.38-13.78,11-6.18,2.62-13.28,3.94-21.3,3.94-7.33,0-14.05-1.12-20.15-3.36-6.1-2.24-11.35-5.38-15.75-9.44s-7.81-8.86-10.25-14.41-3.65-11.69-3.65-18.41Z"/>
    <path class="cls-5" d="M145.39,121.01c2.7,0,5.23.41,7.58,1.22,2.35.81,4.4,1.93,6.13,3.36,1.74,1.43,3.13,3.09,4.17,4.98,1.04,1.89,1.56,3.96,1.56,6.19,0,1.54-.27,2.89-.81,4.05-.54,1.16-1.27,2.14-2.2,2.95-.93.81-1.97,1.43-3.12,1.85-1.16.42-2.36.64-3.59.64-1.7,0-3.3-.41-4.8-1.22-1.5-.81-2.68-2.06-3.53-3.76-.54-1.16-.96-2.39-1.27-3.71-.31-1.31-.69-2.55-1.16-3.71-.46-1.16-1.1-2.12-1.91-2.89-.81-.77-2.07-1.16-3.76-1.16-2.08,0-3.92.6-5.5,1.79-1.58,1.2-2.93,2.68-4.05,4.46-1.12,1.78-1.95,3.75-2.49,5.9-.54,2.16-.81,4.25-.81,6.25v14.36c0,3.09.56,5.31,1.68,6.66,1.12,1.35,2.35,2.37,3.71,3.07,1.35.69,2.58,1.33,3.71,1.91,1.12.58,1.68,1.64,1.68,3.18,0,1.08-.46,1.99-1.39,2.72-.93.73-2.05,1.1-3.36,1.1h-33c-1.31,0-2.43-.37-3.36-1.1-.93-.73-1.39-1.64-1.39-2.72,0-1.54.56-2.61,1.68-3.18,1.12-.58,2.35-1.22,3.71-1.91,1.35-.7,2.58-1.72,3.71-3.07,1.12-1.35,1.68-3.57,1.68-6.66v-20.61c0-3.4-.5-5.77-1.51-7.12-1-1.35-2.1-2.35-3.3-3.01-1.2-.66-2.3-1.22-3.3-1.68-1-.46-1.5-1.47-1.5-3.01,0-1.08.46-1.99,1.39-2.72.93-.73,2.04-1.1,3.36-1.1h19.8c4.01,0,6.02,2.08,6.02,6.25.08,0,.58-.44,1.51-1.33.93-.89,2.22-1.87,3.88-2.95,1.66-1.08,3.68-2.06,6.08-2.95,2.39-.89,5.09-1.33,8.1-1.33Z"/>
    <path class="cls-5" d="M232.22,166.16c.62-.77,1.29-1.35,2.03-1.74.73-.39,1.45-.58,2.14-.58.85,0,1.54.23,2.08.69.69.62,1.04,1.39,1.04,2.32s-.31,1.85-.93,2.78c-3.09,4.48-7.22,7.91-12.39,10.3-5.17,2.39-11.04,3.59-17.6,3.59-5.79,0-11.06-.79-15.8-2.37s-8.8-3.76-12.16-6.54c-3.36-2.78-5.96-6.08-7.82-9.9-1.85-3.82-2.78-8.01-2.78-12.56s.91-8.72,2.72-12.5c1.81-3.78,4.36-7.06,7.64-9.84,3.28-2.78,7.25-4.94,11.93-6.48,4.67-1.54,9.86-2.32,15.57-2.32,9.57,0,17.13,2.6,22.69,7.81,5.56,5.21,8.49,12.49,8.8,21.82h-47.12c.08,2.93.56,5.81,1.45,8.62.89,2.82,2.24,5.33,4.05,7.53,1.81,2.2,4.13,3.98,6.95,5.33,2.82,1.35,6.23,2.03,10.25,2.03,3.47,0,6.71-.69,9.73-2.08,3.01-1.39,5.52-3.36,7.53-5.9ZM220.18,144.28c-.16-5.09-1.35-9.18-3.59-12.27-2.24-3.09-5.09-4.63-8.57-4.63-4.09,0-7.47,1.58-10.13,4.75-2.66,3.17-4.38,7.22-5.15,12.16h27.44Z"/>
    <path class="cls-5" d="M301.57,175.08c-2.93,2.86-6.37,5.02-10.3,6.48-3.94,1.46-7.95,2.2-12.04,2.2-4.63,0-8.88-.77-12.74-2.32-3.86-1.54-7.18-3.7-9.96-6.48-2.78-2.78-4.94-6.1-6.48-9.96-1.54-3.86-2.32-8.1-2.32-12.74s.77-8.86,2.32-12.68c1.54-3.82,3.71-7.12,6.48-9.9,2.78-2.78,6.1-4.94,9.96-6.48,3.86-1.54,8.1-2.32,12.74-2.32,4.24,0,8.32.75,12.21,2.26,3.9,1.5,7.27,3.61,10.13,6.31h2.32c3.09,0,5.31-.5,6.66-1.5,1.35-1,2.37-2.1,3.07-3.3.7-1.2,1.33-2.29,1.91-3.3.58-1,1.64-1.51,3.18-1.51,1.08,0,1.99.46,2.72,1.39.73.93,1.1,2.05,1.1,3.36v37.97c0,3.09.56,5.31,1.68,6.66,1.12,1.35,2.35,2.37,3.71,3.07,1.35.69,2.58,1.33,3.71,1.91,1.12.58,1.68,1.64,1.68,3.18,0,1.08-.46,1.99-1.39,2.72-.93.73-2.05,1.1-3.36,1.1h-20.96c-4.01,0-6.02-2.04-6.02-6.14ZM284.78,176c5.09,0,9.15-2.14,12.16-6.42,3.01-4.28,4.52-10.05,4.52-17.31s-1.5-13-4.52-17.25c-3.01-4.24-7.06-6.37-12.16-6.37-3.01,0-5.54.77-7.58,2.32-2.05,1.54-3.71,3.49-4.98,5.85-1.27,2.35-2.18,4.9-2.72,7.64-.54,2.74-.81,5.35-.81,7.82s.27,4.98.81,7.76c.54,2.78,1.45,5.37,2.72,7.76,1.27,2.39,2.93,4.36,4.98,5.9,2.04,1.54,4.57,2.32,7.58,2.32Z"/>
    <path class="cls-5" d="M343.82,123.33h19.8c4.01,0,6.02,2.08,6.02,6.25.08,0,.56-.44,1.45-1.33.89-.89,2.2-1.87,3.94-2.95,1.74-1.08,3.92-2.06,6.54-2.95,2.62-.89,5.71-1.33,9.26-1.33,9.49,0,16.05,3.74,19.68,11.23,2.93-3.86,6.23-6.7,9.9-8.51,3.67-1.81,7.97-2.72,12.91-2.72,8.1,0,14.24,2.36,18.41,7.06,4.17,4.71,6.25,11.58,6.25,20.61v13.89c0,3.09.56,5.31,1.68,6.66,1.12,1.35,2.35,2.37,3.71,3.07,1.35.69,2.58,1.33,3.71,1.91,1.12.58,1.68,1.64,1.68,3.18,0,1.08-.46,1.99-1.39,2.72-.93.73-2.05,1.1-3.36,1.1h-33c-1.31,0-2.43-.37-3.36-1.1-.93-.73-1.39-1.64-1.39-2.72,0-1.54.56-2.61,1.68-3.18,1.12-.58,2.35-1.22,3.71-1.91,1.35-.7,2.58-1.72,3.71-3.07,1.12-1.35,1.68-3.57,1.68-6.66v-13.08c0-6.64-.93-11.54-2.78-14.7-1.85-3.16-4.75-4.75-8.68-4.75s-6.7,1.43-8.74,4.28c-2.05,2.86-3.07,6.95-3.07,12.27v15.98c0,3.09.46,5.31,1.39,6.66.93,1.35,1.97,2.37,3.13,3.07,1.16.69,2.2,1.33,3.13,1.91.93.58,1.39,1.64,1.39,3.18,0,1.08-.46,1.99-1.39,2.72-.93.73-2.05,1.1-3.36,1.1h-29.41c-1.31,0-2.43-.37-3.36-1.1-.93-.73-1.39-1.64-1.39-2.72,0-1.54.5-2.61,1.5-3.18,1-.58,2.1-1.22,3.3-1.91,1.2-.7,2.3-1.72,3.3-3.07,1-1.35,1.5-3.57,1.5-6.66v-13.08c0-12.97-3.63-19.45-10.88-19.45-3.94,0-7.08,1.7-9.44,5.09-2.36,3.4-3.53,7.83-3.53,13.31v14.12c0,3.09.56,5.31,1.68,6.66,1.12,1.35,2.35,2.37,3.71,3.07,1.35.69,2.58,1.33,3.71,1.91,1.12.58,1.68,1.64,1.68,3.18,0,1.08-.46,1.99-1.39,2.72-.93.73-2.05,1.1-3.36,1.1h-33c-1.31,0-2.43-.37-3.36-1.1-.93-.73-1.39-1.64-1.39-2.72,0-1.54.56-2.61,1.68-3.18,1.12-.58,2.35-1.22,3.71-1.91,1.35-.7,2.58-1.72,3.71-3.07,1.12-1.35,1.68-3.57,1.68-6.66v-20.61c0-3.4-.5-5.77-1.51-7.12-1-1.35-2.1-2.35-3.3-3.01-1.2-.66-2.3-1.22-3.3-1.68-1-.46-1.5-1.47-1.5-3.01,0-1.08.46-1.99,1.39-2.72.93-.73,2.04-1.1,3.36-1.1Z"/>
    <path class="cls-5" d="M534.97,166.16c.62-.77,1.29-1.35,2.03-1.74.73-.39,1.45-.58,2.14-.58.85,0,1.54.23,2.08.69.69.62,1.04,1.39,1.04,2.32s-.31,1.85-.93,2.78c-3.09,4.48-7.22,7.91-12.39,10.3-5.17,2.39-11.04,3.59-17.6,3.59-5.79,0-11.06-.79-15.8-2.37s-8.8-3.76-12.16-6.54c-3.36-2.78-5.96-6.08-7.82-9.9-1.85-3.82-2.78-8.01-2.78-12.56s.91-8.72,2.72-12.5c1.81-3.78,4.36-7.06,7.64-9.84,3.28-2.78,7.25-4.94,11.93-6.48,4.67-1.54,9.86-2.32,15.57-2.32,9.57,0,17.13,2.6,22.69,7.81,5.56,5.21,8.49,12.49,8.8,21.82h-47.12c.08,2.93.56,5.81,1.45,8.62.89,2.82,2.24,5.33,4.05,7.53,1.81,2.2,4.13,3.98,6.95,5.33,2.82,1.35,6.23,2.03,10.25,2.03,3.47,0,6.71-.69,9.73-2.08,3.01-1.39,5.52-3.36,7.53-5.9ZM522.93,144.28c-.16-5.09-1.35-9.18-3.59-12.27-2.24-3.09-5.09-4.63-8.57-4.63-4.09,0-7.47,1.58-10.13,4.75-2.66,3.17-4.38,7.22-5.15,12.16h27.44Z"/>
    <path class="cls-5" d="M598.87,121.01c2.7,0,5.23.41,7.58,1.22,2.35.81,4.4,1.93,6.14,3.36,1.74,1.43,3.13,3.09,4.17,4.98,1.04,1.89,1.56,3.96,1.56,6.19,0,1.54-.27,2.89-.81,4.05-.54,1.16-1.27,2.14-2.2,2.95-.93.81-1.97,1.43-3.13,1.85-1.16.42-2.35.64-3.59.64-1.7,0-3.3-.41-4.8-1.22s-2.68-2.06-3.53-3.76c-.54-1.16-.97-2.39-1.27-3.71-.31-1.31-.69-2.55-1.16-3.71-.46-1.16-1.1-2.12-1.91-2.89-.81-.77-2.07-1.16-3.76-1.16-2.08,0-3.92.6-5.5,1.79-1.58,1.2-2.93,2.68-4.05,4.46-1.12,1.78-1.95,3.75-2.49,5.9-.54,2.16-.81,4.25-.81,6.25v14.36c0,3.09.56,5.31,1.68,6.66,1.12,1.35,2.35,2.37,3.71,3.07,1.35.69,2.58,1.33,3.71,1.91,1.12.58,1.68,1.64,1.68,3.18,0,1.08-.46,1.99-1.39,2.72-.93.73-2.05,1.1-3.36,1.1h-33c-1.31,0-2.43-.37-3.36-1.1-.93-.73-1.39-1.64-1.39-2.72,0-1.54.56-2.61,1.68-3.18,1.12-.58,2.35-1.22,3.71-1.91,1.35-.7,2.58-1.72,3.71-3.07,1.12-1.35,1.68-3.57,1.68-6.66v-20.61c0-3.4-.5-5.77-1.51-7.12-1-1.35-2.1-2.35-3.3-3.01-1.2-.66-2.3-1.22-3.3-1.68-1-.46-1.5-1.47-1.5-3.01,0-1.08.46-1.99,1.39-2.72.93-.73,2.04-1.1,3.36-1.1h19.8c4.01,0,6.02,2.08,6.02,6.25.08,0,.58-.44,1.5-1.33.93-.89,2.22-1.87,3.88-2.95,1.66-1.08,3.68-2.06,6.08-2.95,2.39-.89,5.09-1.33,8.1-1.33Z"/>
  </g>
  <path class="cls-5" d="M709.09,127.04c0,2.08-1.54,3.59-4.63,4.51-3.86,1.08-6.68,3.4-8.45,6.95l-7.85,15.62c-5.02-9.34-11.43-18.87-12.6-18.26-1.26.65,3.47,12.85,8.59,22.75.29.57.59,1.14.9,1.71l-7.66,15.25c-.86-1.85-1.77-3.7-2.69-5.48-5.13-9.9-12.35-20.79-13.6-20.14s3.48,12.84,8.6,22.75c1.49,2.89,3.16,5.86,4.81,8.61l-5.13,10.21c-3.63,7.33-7.56,12.66-11.81,15.98-4.24,3.32-9.18,4.98-14.82,4.98-2.93,0-5.65-.41-8.16-1.22s-4.69-1.93-6.54-3.35c-1.85-1.43-3.3-3.09-4.34-4.98-1.04-1.89-1.57-3.96-1.57-6.2,0-1.54.27-2.89.82-4.05.53-1.16,1.27-2.14,2.2-2.95.92-.81,1.96-1.43,3.12-1.85,1.16-.43,2.36-.64,3.59-.64,1.7,0,3.32.4,4.86,1.22,1.55.81,2.74,2.06,3.59,3.76.54,1.16.95,2.39,1.22,3.7s.63,2.55,1.1,3.71c.46,1.16,1.12,2.12,1.97,2.89.84.77,2.12,1.16,3.82,1.16,1.85,0,3.54-.6,5.09-1.79,1.54-1.2,2.76-2.73,3.65-4.58.88-1.85,1.37-3.38,1.44-4.57.08-1.2.12-1.91.12-2.14,0-1.86-.42-3.59-1.27-5.21l-23.27-45.73c-1.24-2.4-2.53-4.27-3.88-5.62-1.35-1.35-2.92-2.26-4.69-2.72-1.08-.31-1.99-.83-2.72-1.56-.74-.74-1.1-1.64-1.1-2.72s.46-1.97,1.39-2.67c.92-.69,2.04-1.04,3.35-1.04h77.81c1.31,0,2.43.35,3.35,1.04.93.7,1.39,1.59,1.39,2.67Z"/>
  <g>
    <path class="cls-1" d="M4.91,202.41h4.06c2.27,3.41,6.84,10.22,13.71,20.43.21.31.62.95,1.25,1.91v-22.3l.04-.04h3.71l.04.04v28.52l-.04.04h-4.06c-.7-.99-3.31-4.87-7.81-11.64-1.62-2.37-4.02-5.94-7.23-10.7v22.3l-.04.04h-3.63s-.05-.01-.08-.04v-28.52l.08-.04Z"/>
    <path class="cls-1" d="M42.12,211.99c2.11,0,4.05.69,5.82,2.07.23.18.59.51,1.05.98.88.99,1.52,2.02,1.91,3.09.44,1.17.66,2.4.66,3.67,0,1.64-.39,3.2-1.17,4.69-.29.52-.65,1.07-1.09,1.64-.52.57-.94.98-1.25,1.21-.37.29-.7.53-1.02.74-1.54.94-3.15,1.41-4.84,1.41h-.16c-1.77,0-3.46-.52-5.08-1.56-.31-.23-.6-.46-.86-.66-.52-.42-.89-.78-1.09-1.09-.26-.31-.52-.65-.78-1.02-.23-.42-.46-.82-.66-1.21-.6-1.35-.9-2.7-.9-4.02v-.31c0-1.46.36-2.92,1.09-4.38.21-.42.46-.83.74-1.25.21-.31.53-.72.98-1.21.65-.57,1.11-.94,1.37-1.09,1.61-1.12,3.37-1.68,5.27-1.68ZM36.42,221.79c0,1.41.47,2.7,1.41,3.87.39.44.7.73.94.86,1.02.81,2.13,1.21,3.36,1.21,1.48,0,2.8-.57,3.95-1.72.44-.47.75-.88.94-1.25.55-.94.82-1.93.82-2.97v-.04c0-1.51-.52-2.86-1.56-4.06-.44-.47-.73-.73-.86-.78-.23-.18-.44-.33-.62-.43-.86-.47-1.75-.7-2.66-.7-1.38,0-2.64.51-3.79,1.52-.39.42-.64.72-.74.9-.78,1.07-1.17,2.27-1.17,3.59Z"/>
    <path class="cls-1" d="M66.69,202.41h3.75v24.84h12.38v3.75h-16.17v-28.59h.04Z"/>
    <path class="cls-1" d="M94.29,211.99c2.16,0,4.01.83,5.55,2.5v-2.15s.05-.01.08-.04h3.67s.05.01.08.04v18.63s-.05.01-.08.04h-3.67l-.08-.04v-1.88c-1.46,1.59-3.33,2.38-5.62,2.38-2.84,0-5.26-1.15-7.27-3.44-1.48-1.88-2.23-3.97-2.23-6.29,0-2.89,1.11-5.38,3.32-7.46,1.82-1.54,3.91-2.3,6.25-2.3ZM88.51,221.75c0,2.03.88,3.71,2.66,5.04.96.6,1.9.9,2.81.9h.39c1.25,0,2.47-.51,3.67-1.52,1.2-1.25,1.8-2.72,1.8-4.41,0-2.08-.89-3.78-2.66-5.08-.96-.57-1.91-.86-2.85-.86h-.31c-1.56,0-2.98.72-4.26,2.15-.83,1.2-1.25,2.46-1.25,3.79Z"/>
    <path class="cls-1" d="M117.4,211.99h.04c1.95,0,3.78.61,5.47,1.84.31.21.66.51,1.05.9.47.5.79.87.98,1.13.18.23.27.38.27.43-.7.44-1.74,1.13-3.12,2.07-.16-.23-.42-.55-.78-.94-1.15-1.09-2.45-1.64-3.91-1.64s-2.67.51-3.79,1.52c-.42.42-.66.72-.74.9-.78,1.07-1.17,2.25-1.17,3.55,0,1.41.46,2.68,1.37,3.83.29.37.59.66.9.9,1.04.83,2.2,1.25,3.48,1.25,1.15,0,2.2-.36,3.16-1.09.23-.13.55-.39.94-.78.21-.26.4-.52.59-.78.52.37,1.56,1.05,3.12,2.07-.21.37-.51.77-.9,1.21-.44.47-.76.77-.94.9-.42.34-.78.61-1.09.82-1.56.94-3.18,1.41-4.84,1.41h-.16c-1.8,0-3.49-.52-5.08-1.56-.31-.23-.61-.46-.9-.66-.47-.44-.82-.81-1.05-1.09-.52-.62-.9-1.16-1.13-1.6-.23-.42-.47-.96-.7-1.64-.34-1.07-.51-2.07-.51-3.01v-.31c0-1.46.35-2.92,1.05-4.38.23-.42.49-.83.78-1.25.21-.31.53-.72.98-1.21.52-.49.98-.86,1.37-1.09,1.64-1.12,3.4-1.68,5.27-1.68Z"/>
    <path class="cls-1" d="M130.45,202.41h3.75v9.84h4.84l.04.04v3.75h-4.88v9.45c0,.73.26,1.21.78,1.45.31.21.66.31,1.05.31.49,0,1.21-.17,2.15-.51.03-.03.08-.06.16-.12.23.6.7,1.78,1.41,3.55-.31.13-.82.3-1.52.51-.83.21-1.56.31-2.19.31h-.04c-1.22,0-2.38-.38-3.48-1.13-.18-.13-.42-.34-.7-.62-.08-.1-.2-.25-.35-.43-.21-.29-.38-.55-.51-.78-.34-.81-.51-1.6-.51-2.38v-9.61h-2.81v-3.75s.04-.01.04-.04h2.77v-9.84Z"/>
    <path class="cls-1" d="M151.05,211.99c2.11,0,4.05.69,5.82,2.07.23.18.59.51,1.05.98.88.99,1.52,2.02,1.91,3.09.44,1.17.66,2.4.66,3.67,0,1.64-.39,3.2-1.17,4.69-.29.52-.65,1.07-1.09,1.64-.52.57-.94.98-1.25,1.21-.37.29-.7.53-1.02.74-1.54.94-3.15,1.41-4.84,1.41h-.16c-1.77,0-3.46-.52-5.08-1.56-.31-.23-.6-.46-.86-.66-.52-.42-.89-.78-1.09-1.09-.26-.31-.52-.65-.78-1.02-.23-.42-.46-.82-.66-1.21-.6-1.35-.9-2.7-.9-4.02v-.31c0-1.46.36-2.92,1.09-4.38.21-.42.46-.83.74-1.25.21-.31.53-.72.98-1.21.65-.57,1.11-.94,1.37-1.09,1.61-1.12,3.37-1.68,5.27-1.68ZM145.34,221.79c0,1.41.47,2.7,1.41,3.87.39.44.7.73.94.86,1.02.81,2.13,1.21,3.36,1.21,1.48,0,2.8-.57,3.95-1.72.44-.47.75-.88.94-1.25.55-.94.82-1.93.82-2.97v-.04c0-1.51-.52-2.86-1.56-4.06-.44-.47-.73-.73-.86-.78-.23-.18-.44-.33-.62-.43-.86-.47-1.75-.7-2.66-.7-1.38,0-2.64.51-3.79,1.52-.39.42-.64.72-.74.9-.78,1.07-1.17,2.27-1.17,3.59Z"/>
    <path class="cls-1" d="M171.44,211.2c2.4,0,4.43.76,6.09,2.27.39.34.65.61.78.82.05.1.14.23.27.39-.03.05-.39.27-1.09.66-.65.42-1.35.86-2.11,1.33-.23-.26-.47-.48-.7-.66-.86-.65-1.91-.98-3.16-.98h-.12c-1.35,0-2.45.33-3.28.98-.44.39-.66.81-.66,1.25,0,.29.12.51.35.66.26.21.74.44,1.45.7,1.02.31,2.56.65,4.65,1.02.65.16,1.22.34,1.72.55.44.18.9.43,1.37.74.21.16.49.42.86.78.96,1.04,1.45,2.21,1.45,3.52v.04c0,1.33-.5,2.58-1.48,3.75-.42.42-.72.68-.9.78-.52.39-.95.65-1.29.78-1.33.6-2.73.9-4.22.9h-.16c-1.95,0-3.74-.51-5.35-1.52-.37-.23-.74-.55-1.13-.94-.37-.34-.62-.61-.78-.82-.26-.34-.5-.69-.7-1.05.73-.42,1.82-1.04,3.28-1.88.03.05.08.14.16.27.16.23.39.5.7.78.57.55,1.3.95,2.19,1.21.57.13,1.15.2,1.72.2,1.15,0,2.16-.26,3.05-.78.18-.1.39-.26.62-.47.34-.42.51-.83.51-1.25,0-.7-.55-1.26-1.64-1.68-.37-.13-1.03-.27-1.99-.43-2.11-.39-3.67-.82-4.69-1.29-.44-.16-.89-.38-1.33-.66-.99-.65-1.64-1.47-1.95-2.46-.16-.44-.23-.91-.23-1.41v-.12c0-1.22.46-2.38,1.37-3.48.39-.42.68-.68.86-.78.44-.34.86-.6,1.25-.78,1.3-.62,2.73-.94,4.3-.94Z"/>
    <path class="cls-1" d="M190.76,211.99h.55c1.9,0,3.74.77,5.51,2.3.86.83,1.45,1.56,1.76,2.19.94,1.67,1.41,3.42,1.41,5.27v.59c0,.37-.01.55-.04.55h-14.02c.31,1.38.82,2.42,1.52,3.12,1.04,1.15,2.24,1.72,3.59,1.72,1.69,0,3.11-.86,4.26-2.58.21-.44.33-.66.35-.66,2.27,1.02,3.4,1.54,3.4,1.56-.18.47-.59,1.15-1.21,2.03-1.9,2.27-4.15,3.4-6.76,3.4h-.12c-2.66,0-4.96-1.2-6.91-3.59-1.33-1.85-1.99-3.88-1.99-6.09v-.08c0-3.05,1.17-5.62,3.52-7.73,1.72-1.33,3.45-1.99,5.2-1.99ZM186.26,219.33h9.49v-.04c-.21-.65-.72-1.39-1.52-2.23-.99-.86-2.07-1.29-3.24-1.29-1.8,0-3.27.95-4.41,2.85-.05.16-.16.39-.31.7Z"/>
    <path class="cls-1" d="M205.64,226.2c.81,0,1.47.37,1.99,1.09.31.47.47,1.08.47,1.84,0,2.03-1.21,4.11-3.63,6.25-.68.62-1.11.98-1.29,1.05-.23-.29-.56-.72-.98-1.29,1.67-1.54,2.5-2.92,2.5-4.14-.6-.23-1.03-.64-1.29-1.21-.21-.34-.31-.72-.31-1.13,0-.81.38-1.48,1.13-2.03.42-.29.88-.43,1.41-.43Z"/>
    <path class="cls-1" d="M236.93,202.41h3.75v20.08c0,1.3-.37,2.63-1.09,3.98-.23.44-.55.91-.94,1.41-.52.6-.95,1.02-1.29,1.25-.57.44-1.11.79-1.6,1.05-1.2.55-2.36.82-3.48.82h-1.99c-1.22,0-2.47-.33-3.75-.98-.47-.26-.96-.6-1.48-1.02-.23-.21-.52-.48-.86-.82-.5-.6-.85-1.08-1.05-1.45-.18-.29-.39-.72-.62-1.29-.39-1.02-.59-1.99-.59-2.93v-1.52h3.75v1.37c0,1.17.43,2.27,1.29,3.28.39.37.68.6.86.7.83.6,1.71.9,2.62.9h1.72c.99,0,1.93-.35,2.81-1.05.39-.34.69-.65.9-.94.68-.91,1.02-1.9,1.02-2.97v-19.88h.04Z"/>
    <path class="cls-1" d="M254.58,231.01h-.16c-3.38,0-5.81-1.26-7.27-3.79-.49-1.02-.74-2.2-.74-3.55v-11.29s.03-.05.08-.08h3.63l.08.08v11.33c0,1.62.65,2.67,1.95,3.16.57.26,1.29.39,2.15.39h.31c1.59,0,2.72-.26,3.4-.78.86-.52,1.29-1.47,1.29-2.85v-11.25s.04-.05.04-.08h3.71v18.59h-3.71l-.04-.04v-1.25c-.68.5-1.55.9-2.62,1.21-.57.13-1.28.2-2.11.2Z"/>
    <path class="cls-1" d="M275.3,211.2c2.4,0,4.43.76,6.09,2.27.39.34.65.61.78.82.05.1.14.23.27.39-.03.05-.39.27-1.09.66-.65.42-1.35.86-2.11,1.33-.23-.26-.47-.48-.7-.66-.86-.65-1.91-.98-3.16-.98h-.12c-1.35,0-2.45.33-3.28.98-.44.39-.66.81-.66,1.25,0,.29.12.51.35.66.26.21.74.44,1.45.7,1.02.31,2.56.65,4.65,1.02.65.16,1.22.34,1.72.55.44.18.9.43,1.37.74.21.16.49.42.86.78.96,1.04,1.45,2.21,1.45,3.52v.04c0,1.33-.5,2.58-1.48,3.75-.42.42-.72.68-.9.78-.52.39-.95.65-1.29.78-1.33.6-2.73.9-4.22.9h-.16c-1.95,0-3.74-.51-5.35-1.52-.37-.23-.74-.55-1.13-.94-.37-.34-.62-.61-.78-.82-.26-.34-.5-.69-.7-1.05.73-.42,1.82-1.04,3.28-1.88.03.05.08.14.16.27.16.23.39.5.7.78.57.55,1.3.95,2.19,1.21.57.13,1.15.2,1.72.2,1.15,0,2.16-.26,3.05-.78.18-.1.39-.26.62-.47.34-.42.51-.83.51-1.25,0-.7-.55-1.26-1.64-1.68-.37-.13-1.03-.27-1.99-.43-2.11-.39-3.67-.82-4.69-1.29-.44-.16-.89-.38-1.33-.66-.99-.65-1.64-1.47-1.95-2.46-.16-.44-.23-.91-.23-1.41v-.12c0-1.22.46-2.38,1.37-3.48.39-.42.68-.68.86-.78.44-.34.86-.6,1.25-.78,1.3-.62,2.73-.94,4.3-.94Z"/>
    <path class="cls-1" d="M288.16,202.41h3.75v9.84h4.84l.04.04v3.75h-4.88v9.45c0,.73.26,1.21.78,1.45.31.21.66.31,1.05.31.49,0,1.21-.17,2.15-.51.03-.03.08-.06.16-.12.23.6.7,1.78,1.41,3.55-.31.13-.82.3-1.52.51-.83.21-1.56.31-2.19.31h-.04c-1.22,0-2.38-.38-3.48-1.13-.18-.13-.42-.34-.7-.62-.08-.1-.2-.25-.35-.43-.21-.29-.38-.55-.51-.78-.34-.81-.51-1.6-.51-2.38v-9.61h-2.81v-3.75s.04-.01.04-.04h2.77v-9.84Z"/>
    <path class="cls-1" d="M312.1,202.41h7.42c3.44,0,6.55,1.16,9.34,3.48,1.09,1.02,1.8,1.76,2.11,2.23,1.9,2.63,2.85,5.47,2.85,8.52v.2c0,3.8-1.45,7.19-4.34,10.16-1.59,1.43-3.14,2.44-4.65,3.01-1.75.68-3.45,1.02-5.12,1.02h-7.62s-.05-.01-.08-.04v-28.48l.08-.08ZM315.81,206.24v21.02h3.44c3.33,0,6.09-1.24,8.28-3.71,1.69-2.03,2.54-4.3,2.54-6.8s-.87-4.88-2.62-6.91c-1.02-1.09-1.81-1.77-2.38-2.03-.52-.36-1.33-.74-2.42-1.13-.99-.31-2.27-.47-3.83-.47h-2.97s-.04.01-.04.04Z"/>
    <path class="cls-1" d="M346.62,211.99c2.16,0,4.01.83,5.55,2.5v-2.15s.05-.01.08-.04h3.67s.05.01.08.04v18.63s-.05.01-.08.04h-3.67l-.08-.04v-1.88c-1.46,1.59-3.33,2.38-5.62,2.38-2.84,0-5.26-1.15-7.27-3.44-1.48-1.88-2.23-3.97-2.23-6.29,0-2.89,1.11-5.38,3.32-7.46,1.82-1.54,3.91-2.3,6.25-2.3ZM340.84,221.75c0,2.03.88,3.71,2.66,5.04.96.6,1.9.9,2.81.9h.39c1.25,0,2.47-.51,3.67-1.52,1.2-1.25,1.8-2.72,1.8-4.41,0-2.08-.89-3.78-2.66-5.08-.96-.57-1.91-.86-2.85-.86h-.31c-1.56,0-2.98.72-4.26,2.15-.83,1.2-1.25,2.46-1.25,3.79Z"/>
    <path class="cls-1" d="M363.34,202.41h.16c.55,0,1.08.22,1.6.66.49.52.74,1.09.74,1.72v.12c0,.6-.21,1.16-.62,1.68-.52.5-1.11.74-1.76.74h-.12c-.6,0-1.15-.23-1.64-.7-.26-.29-.44-.53-.55-.74-.13-.34-.2-.65-.2-.94v-.16c0-.6.23-1.16.7-1.68.05-.05.14-.13.27-.23.47-.31.94-.47,1.41-.47ZM365.3,212.3v18.71h-3.79v-18.71h3.79Z"/>
    <path class="cls-1" d="M379.01,212.18h.51c1.3,0,2.63.38,3.98,1.13v.04c-.52,2.47-.82,3.76-.9,3.87-1.25-.81-2.36-1.21-3.32-1.21h-.31c-1.25,0-2.34.46-3.28,1.37-.73.86-1.09,2.51-1.09,4.96v8.67h-3.67s-.03-.05-.08-.08v-18.36h3.75v1.41c1.46-1.2,2.93-1.8,4.41-1.8Z"/>
    <path class="cls-1" d="M389.91,212.3l.16.39c.62,1.46,1.55,3.66,2.77,6.6.49,1.15,1.5,3.48,3.01,6.99.03-.08.3-.73.82-1.95.57-1.33,1.45-3.31,2.62-5.94.44-1.02,1.33-3.05,2.66-6.09h4.14c-.7,1.59-2.1,4.77-4.18,9.53-.57,1.35-1.75,4.02-3.52,8.01-.6,1.38-1.8,4.13-3.59,8.24-.1.23-.3.69-.59,1.37h-4.14v-.04c.62-1.41,1.86-4.21,3.71-8.4-.62-1.46-1.9-4.38-3.83-8.75-.65-1.48-1.95-4.44-3.91-8.87-.08-.18-.23-.55-.47-1.09h4.34Z"/>
  </g>
</svg>