<?xml version="1.0" encoding="UTF-8"?>
<svg id="Logo_-_Color" data-name="Logo - Color" xmlns="http://www.w3.org/2000/svg" viewBox="0 0 714.49 242.63">
  <defs>
    <style>
      .cls-1 {
        fill: #75435e;
      }

      .cls-2 {
        fill: #b19a81;
      }

      .cls-3 {
        fill: #b3c878;
      }

      .cls-4 {
        fill: #735d4a;
      }

      .cls-5 {
        fill: #e099c1;
      }
    </style>
  </defs>
  <path class="cls-2" d="M602.8,107.85c0,1.86-85.79,3.7-159.13,3.69-73.04,0-158.22-1.84-158.23-3.69,0-1.85,85.1-3.69,158.07-3.7,73.48,0,159.28,1.83,159.28,3.7Z"/>
  <g>
    <path class="cls-1" d="M621.39,114.4c-.13.06-8.61-10.18-5.33-19.98,2.24-6.71,8.8-10.18,11.84-11.39,7.35-2.91,15.39-3.15,23.23-2.76,7.84.39,15.68,1.39,23.51.81,7.83-.57,15.82-2.88,21.77-8.28,5.95-5.4,9.42-14.35,7.08-22.26-2.01-6.82-7.92-11.78-14.35-13.99-5.08-1.75-10.55-2.04-15.6-3.9-5.05-1.85-9.96-5.95-10.53-11.56-.54-5.4,3.2-10.44,7.75-12.98,4.21-2.35,7.65-3.24,14.87-4.01,9.86-1.05,20.3-.54,20.44.98.1,1.06-4.67,1.39-10.18,5.35-3.14,2.26-5.84,5.54-6.49,9.49-1.08,6.64,3.78,12.66,8.78,16.85,5,4.19,10.81,8.14,12.93,14.5,1.92,5.75.22,12.33-3.19,17.25-3.39,4.88-7.54,8.52-13.37,11.4-21.13,10.41-51.57,9.41-64.55,12.29-1.4.31-4.28,1.04-6.85,3.35-.54.48-3.1,2.86-4.06,6.68-1.61,6.37,2.38,12.14,2.28,12.18Z"/>
    <path class="cls-5" d="M637.94,77.13c-.53,1.03-9.92-.03-14.44-6.53-2.86-4.11-2.51-8.81-2.39-10.8.12-2.02.66-5.83,3.05-9.54,5.15-8,14.9-9.27,16.41-9.44,10.02-1.15,10.62,5.35,21.86,5.12,3.95-.08,4.51-.9,20.66-2.91,2.16-.27,5.36-.54,8.77.99,2.9,1.3,6.57,4.61,6.09,7.37-.84,4.81-13.97,5.91-14.85,5.98-11.38.87-13.78-3.87-26.42-3.98-5.17-.05-12.57-.01-18.69,4.92-.79.64-7.39,6.1-6.29,11.61.92,4.62,6.7,6.35,6.25,7.21Z"/>
    <path class="cls-5" d="M711.72,99.81c.68-1.77,2.51-6.68,1.24-12.71-.62-2.95-2.7-9.6-5.61-9.67-3.01-.07-3.4,6.9-10.01,15.3-2.01,2.56-6.32,8.03-13.45,10.66-6.65,2.44-12.96,1.38-20.18.17-5.65-.95-6.44-1.85-13.53-2.83-3.96-.55-8.44-.93-13.68.21-4.22.91-5.89,2.15-6.87,3.11-.66.64-3.41,3.31-3.04,6.99.29,2.87,2.31,4.68,3.2,5.48,2.49,2.23,5.5,2.81,7.7,3.01,9.36.84,14.06-4.73,23.4-5.77,10.96-1.22,12.03,5.61,24.63,4.3,9.1-.95,15.09-5.19,16.6-6.32,2.36-1.75,7.06-5.35,9.61-11.94Z"/>
  </g>
  <g>
    <path class="cls-3" d="M337.08,71.73c0,3.09.56,5.31,1.68,6.66,1.12,1.35,2.35,2.37,3.7,3.07,1.35.69,2.58,1.33,3.71,1.91,1.12.58,1.68,1.64,1.68,3.18,0,1.08-.46,1.99-1.39,2.72-.93.74-2.05,1.1-3.36,1.1h-33c-1.31,0-2.43-.37-3.36-1.1-.93-.73-1.39-1.64-1.39-2.72,0-1.54.56-2.6,1.68-3.18,1.12-.58,2.35-1.22,3.7-1.91,1.35-.69,2.58-1.72,3.71-3.07,1.12-1.35,1.68-3.57,1.68-6.66V10.49h-6.6c-4.09,0-7.43,1.04-10.01,3.13-2.59,2.08-4.84,5.56-6.77,10.42-.77,1.85-2.12,2.78-4.05,2.78-1.24,0-2.08-.35-2.55-1.04-.46-.69-.69-1.39-.69-2.08,0-.46.08-1,.23-1.62l3.47-15.05c.23-1.08.73-1.93,1.51-2.55.77-.62,1.7-.93,2.78-.93h66.34c1.08,0,2.01.31,2.78.93.77.62,1.27,1.47,1.51,2.55l3.47,15.05c.15.62.23,1.16.23,1.62,0,.7-.23,1.39-.69,2.08-.46.7-1.31,1.04-2.55,1.04-1.93,0-3.28-.93-4.05-2.78-1.93-4.86-4.19-8.34-6.77-10.42-2.59-2.08-5.92-3.13-10.01-3.13h-6.6v61.25Z"/>
    <path class="cls-3" d="M421.37,30.17c2.7,0,5.23.41,7.58,1.22,2.35.81,4.4,1.93,6.14,3.36,1.74,1.43,3.12,3.09,4.17,4.98,1.04,1.89,1.56,3.96,1.56,6.19,0,1.54-.27,2.89-.81,4.05-.54,1.16-1.27,2.14-2.2,2.95-.93.81-1.97,1.43-3.13,1.85-1.16.43-2.35.64-3.59.64-1.7,0-3.3-.41-4.8-1.21-1.51-.81-2.68-2.06-3.53-3.76-.54-1.16-.97-2.39-1.27-3.7-.31-1.31-.7-2.55-1.16-3.71s-1.1-2.12-1.91-2.89c-.81-.77-2.07-1.16-3.76-1.16-2.08,0-3.92.6-5.5,1.79-1.58,1.2-2.93,2.68-4.05,4.46-1.12,1.78-1.95,3.74-2.49,5.9-.54,2.16-.81,4.25-.81,6.25v14.36c0,3.09.56,5.31,1.68,6.66,1.12,1.35,2.35,2.37,3.71,3.07,1.35.69,2.59,1.33,3.71,1.91,1.12.58,1.68,1.64,1.68,3.18,0,1.08-.46,1.99-1.39,2.72-.93.74-2.04,1.1-3.36,1.1h-33c-1.31,0-2.43-.37-3.36-1.1-.93-.73-1.39-1.64-1.39-2.72,0-1.54.56-2.6,1.68-3.18,1.12-.58,2.35-1.22,3.71-1.91,1.35-.69,2.58-1.72,3.71-3.07,1.12-1.35,1.68-3.57,1.68-6.66v-20.61c0-3.4-.5-5.77-1.5-7.12-1-1.35-2.1-2.35-3.3-3.01-1.2-.65-2.3-1.22-3.3-1.68-1-.46-1.5-1.46-1.5-3.01,0-1.08.46-1.99,1.39-2.72.93-.73,2.04-1.1,3.36-1.1h19.8c4.01,0,6.02,2.08,6.02,6.25.08,0,.58-.44,1.5-1.33.93-.89,2.22-1.87,3.88-2.95,1.66-1.08,3.69-2.06,6.08-2.95,2.39-.89,5.09-1.33,8.11-1.33Z"/>
    <path class="cls-3" d="M520.82,71.73c0,3.09.56,5.31,1.68,6.66,1.12,1.35,2.35,2.37,3.71,3.07,1.35.69,2.58,1.33,3.71,1.91,1.12.58,1.68,1.64,1.68,3.18,0,1.08-.46,1.99-1.39,2.72-.93.74-2.05,1.1-3.36,1.1h-20.96c-4.01,0-6.02-2.08-6.02-6.25-.08,0-.62.45-1.62,1.33-1,.89-2.45,1.87-4.34,2.95-1.89,1.08-4.21,2.06-6.95,2.95-2.74.89-5.89,1.33-9.44,1.33-7.64,0-13.49-2.37-17.54-7.12-4.05-4.75-6.08-11.6-6.08-20.55v-13.89c0-3.4-.5-5.77-1.51-7.12-1-1.35-2.1-2.35-3.3-3.01-1.2-.65-2.3-1.22-3.3-1.68-1-.46-1.5-1.46-1.5-3.01,0-1.08.46-1.99,1.39-2.72.93-.73,2.04-1.1,3.36-1.1h19.8c4.01,0,6.02,2.08,6.02,6.25v25.47c0,12.97,3.63,19.45,10.88,19.45,2.01,0,3.86-.46,5.56-1.39,1.7-.93,3.18-2.22,4.46-3.88,1.27-1.66,2.28-3.61,3.01-5.85.73-2.24,1.1-4.67,1.1-7.29v-14.12c0-3.4-.5-5.77-1.51-7.12-1-1.35-2.1-2.35-3.3-3.01-1.2-.65-2.3-1.22-3.3-1.68-1-.46-1.5-1.46-1.5-3.01,0-1.08.46-1.99,1.39-2.72.93-.73,2.04-1.1,3.36-1.1h19.8c4.01,0,6.02,2.08,6.02,6.25v33Z"/>
    <path class="cls-3" d="M598.97,75.32c.62-.77,1.29-1.35,2.03-1.74.73-.38,1.45-.58,2.14-.58.85,0,1.54.23,2.08.69.69.62,1.04,1.39,1.04,2.32s-.31,1.85-.93,2.78c-3.09,4.48-7.22,7.91-12.39,10.3-5.17,2.39-11.04,3.59-17.6,3.59-5.79,0-11.06-.79-15.8-2.37s-8.8-3.76-12.16-6.54-5.96-6.08-7.82-9.9c-1.85-3.82-2.78-8.01-2.78-12.56s.91-8.72,2.72-12.5c1.81-3.78,4.36-7.06,7.64-9.84,3.28-2.78,7.25-4.94,11.93-6.48,4.67-1.54,9.86-2.32,15.57-2.32,9.57,0,17.13,2.61,22.69,7.82,5.56,5.21,8.49,12.49,8.8,21.82h-47.12c.08,2.93.56,5.81,1.45,8.63.89,2.82,2.24,5.33,4.05,7.53,1.81,2.2,4.13,3.98,6.95,5.33,2.82,1.35,6.23,2.03,10.25,2.03,3.47,0,6.71-.69,9.73-2.08,3.01-1.39,5.52-3.36,7.53-5.9ZM586.93,53.44c-.16-5.09-1.35-9.18-3.59-12.27-2.24-3.09-5.09-4.63-8.57-4.63-4.09,0-7.47,1.58-10.13,4.75-2.66,3.17-4.38,7.22-5.15,12.16h27.44Z"/>
  </g>
  <g>
    <path class="cls-4" d="M1.86,139.6c0-5.71,1.06-11.33,3.18-16.85,2.12-5.52,5.33-10.42,9.61-14.7,4.28-4.28,9.61-7.74,15.98-10.36,6.37-2.62,13.83-3.94,22.4-3.94,4.79,0,9.22.45,13.31,1.33,4.09.89,7.68,2.1,10.77,3.65,3.09,1.54,5.57,3.38,7.47,5.5,1.89,2.12,2.95,4.42,3.18,6.89.08.46.12.89.12,1.27,0,1.16-.19,2.33-.58,3.53-.39,1.2-1.04,2.32-1.97,3.36-.93,1.04-2.05,1.87-3.36,2.49-1.31.62-2.74.93-4.28.93-1.93,0-3.53-.41-4.8-1.22-1.27-.81-2.32-1.74-3.13-2.78-.81-1.04-1.43-2.12-1.85-3.24-.43-1.12-.71-1.95-.87-2.49-2.08-8.26-7.18-12.39-15.28-12.39-3.78,0-7.29.87-10.54,2.61-3.24,1.74-6.04,4.17-8.39,7.29-2.36,3.13-4.21,6.79-5.56,11-1.35,4.21-2.03,8.82-2.03,13.83,0,5.79.85,11.1,2.55,15.92,1.7,4.82,4.09,8.97,7.18,12.45,3.09,3.47,6.79,6.16,11.11,8.05,4.32,1.89,9.07,2.84,14.24,2.84,4.86,0,9.24-.79,13.14-2.37,3.9-1.58,6.73-3.72,8.51-6.43.85-1.31,1.64-2.12,2.37-2.43.73-.31,1.33-.46,1.79-.46.39,0,.77.08,1.16.23.93.46,1.39,1.24,1.39,2.32,0,1.24-.66,2.86-1.97,4.86-3.01,4.71-7.6,8.38-13.78,11-6.18,2.62-13.28,3.94-21.3,3.94-7.33,0-14.05-1.12-20.15-3.36-6.1-2.24-11.35-5.38-15.75-9.44s-7.81-8.86-10.25-14.41-3.65-11.69-3.65-18.41Z"/>
    <path class="cls-4" d="M145.77,122.7c2.7,0,5.23.41,7.58,1.22,2.35.81,4.4,1.93,6.13,3.36,1.74,1.43,3.13,3.09,4.17,4.98,1.04,1.89,1.56,3.96,1.56,6.19,0,1.54-.27,2.89-.81,4.05-.54,1.16-1.27,2.14-2.2,2.95-.93.81-1.97,1.43-3.12,1.85-1.16.42-2.36.64-3.59.64-1.7,0-3.3-.41-4.8-1.22-1.5-.81-2.68-2.06-3.53-3.76-.54-1.16-.96-2.39-1.27-3.71-.31-1.31-.69-2.55-1.16-3.71-.46-1.16-1.1-2.12-1.91-2.89-.81-.77-2.07-1.16-3.76-1.16-2.08,0-3.92.6-5.5,1.79-1.58,1.2-2.93,2.68-4.05,4.46-1.12,1.78-1.95,3.75-2.49,5.9-.54,2.16-.81,4.25-.81,6.25v14.36c0,3.09.56,5.31,1.68,6.66,1.12,1.35,2.35,2.37,3.71,3.07,1.35.69,2.58,1.33,3.71,1.91,1.12.58,1.68,1.64,1.68,3.18,0,1.08-.46,1.99-1.39,2.72-.93.73-2.05,1.1-3.36,1.1h-33c-1.31,0-2.43-.37-3.36-1.1-.93-.73-1.39-1.64-1.39-2.72,0-1.54.56-2.61,1.68-3.18,1.12-.58,2.35-1.22,3.71-1.91,1.35-.7,2.58-1.72,3.71-3.07,1.12-1.35,1.68-3.57,1.68-6.66v-20.61c0-3.4-.5-5.77-1.51-7.12-1-1.35-2.1-2.35-3.3-3.01-1.2-.66-2.3-1.22-3.3-1.68-1-.46-1.5-1.47-1.5-3.01,0-1.08.46-1.99,1.39-2.72.93-.73,2.04-1.1,3.36-1.1h19.8c4.01,0,6.02,2.08,6.02,6.25.08,0,.58-.44,1.51-1.33.93-.89,2.22-1.87,3.88-2.95,1.66-1.08,3.68-2.06,6.08-2.95,2.39-.89,5.09-1.33,8.1-1.33Z"/>
    <path class="cls-4" d="M232.6,167.85c.62-.77,1.29-1.35,2.03-1.74.73-.39,1.45-.58,2.14-.58.85,0,1.54.23,2.08.69.69.62,1.04,1.39,1.04,2.32s-.31,1.85-.93,2.78c-3.09,4.48-7.22,7.91-12.39,10.3-5.17,2.39-11.04,3.59-17.6,3.59-5.79,0-11.06-.79-15.8-2.37s-8.8-3.76-12.16-6.54c-3.36-2.78-5.96-6.08-7.82-9.9-1.85-3.82-2.78-8.01-2.78-12.56s.91-8.72,2.72-12.5c1.81-3.78,4.36-7.06,7.64-9.84,3.28-2.78,7.25-4.94,11.93-6.48,4.67-1.54,9.86-2.32,15.57-2.32,9.57,0,17.13,2.6,22.69,7.81,5.56,5.21,8.49,12.49,8.8,21.82h-47.12c.08,2.93.56,5.81,1.45,8.62.89,2.82,2.24,5.33,4.05,7.53,1.81,2.2,4.13,3.98,6.95,5.33,2.82,1.35,6.23,2.03,10.25,2.03,3.47,0,6.71-.69,9.73-2.08,3.01-1.39,5.52-3.36,7.53-5.9ZM220.56,145.97c-.16-5.09-1.35-9.18-3.59-12.27-2.24-3.09-5.09-4.63-8.57-4.63-4.09,0-7.47,1.58-10.13,4.75-2.66,3.17-4.38,7.22-5.15,12.16h27.44Z"/>
    <path class="cls-4" d="M301.95,176.77c-2.93,2.86-6.37,5.02-10.3,6.48-3.94,1.46-7.95,2.2-12.04,2.2-4.63,0-8.88-.77-12.74-2.32-3.86-1.54-7.18-3.7-9.96-6.48-2.78-2.78-4.94-6.1-6.48-9.96-1.54-3.86-2.32-8.1-2.32-12.74s.77-8.86,2.32-12.68c1.54-3.82,3.71-7.12,6.48-9.9,2.78-2.78,6.1-4.94,9.96-6.48,3.86-1.54,8.1-2.32,12.74-2.32,4.24,0,8.32.75,12.21,2.26,3.9,1.5,7.27,3.61,10.13,6.31h2.32c3.09,0,5.31-.5,6.66-1.5,1.35-1,2.37-2.1,3.07-3.3.7-1.2,1.33-2.29,1.91-3.3.58-1,1.64-1.51,3.18-1.51,1.08,0,1.99.46,2.72,1.39.73.93,1.1,2.05,1.1,3.36v37.97c0,3.09.56,5.31,1.68,6.66,1.12,1.35,2.35,2.37,3.71,3.07,1.35.69,2.58,1.33,3.71,1.91,1.12.58,1.68,1.64,1.68,3.18,0,1.08-.46,1.99-1.39,2.72-.93.73-2.05,1.1-3.36,1.1h-20.96c-4.01,0-6.02-2.04-6.02-6.14ZM285.16,177.69c5.09,0,9.15-2.14,12.16-6.42,3.01-4.28,4.52-10.05,4.52-17.31s-1.5-13-4.52-17.25c-3.01-4.24-7.06-6.37-12.16-6.37-3.01,0-5.54.77-7.58,2.32-2.05,1.54-3.71,3.49-4.98,5.85-1.27,2.35-2.18,4.9-2.72,7.64-.54,2.74-.81,5.35-.81,7.82s.27,4.98.81,7.76c.54,2.78,1.45,5.37,2.72,7.76,1.27,2.39,2.93,4.36,4.98,5.9,2.04,1.54,4.57,2.32,7.58,2.32Z"/>
    <path class="cls-4" d="M344.2,125.01h19.8c4.01,0,6.02,2.08,6.02,6.25.08,0,.56-.44,1.45-1.33.89-.89,2.2-1.87,3.94-2.95,1.74-1.08,3.92-2.06,6.54-2.95,2.62-.89,5.71-1.33,9.26-1.33,9.49,0,16.05,3.74,19.68,11.23,2.93-3.86,6.23-6.7,9.9-8.51,3.67-1.81,7.97-2.72,12.91-2.72,8.1,0,14.24,2.36,18.41,7.06,4.17,4.71,6.25,11.58,6.25,20.61v13.89c0,3.09.56,5.31,1.68,6.66,1.12,1.35,2.35,2.37,3.71,3.07,1.35.69,2.58,1.33,3.71,1.91,1.12.58,1.68,1.64,1.68,3.18,0,1.08-.46,1.99-1.39,2.72-.93.73-2.05,1.1-3.36,1.1h-33c-1.31,0-2.43-.37-3.36-1.1-.93-.73-1.39-1.64-1.39-2.72,0-1.54.56-2.61,1.68-3.18,1.12-.58,2.35-1.22,3.71-1.91,1.35-.7,2.58-1.72,3.71-3.07,1.12-1.35,1.68-3.57,1.68-6.66v-13.08c0-6.64-.93-11.54-2.78-14.7-1.85-3.16-4.75-4.75-8.68-4.75s-6.7,1.43-8.74,4.28c-2.05,2.86-3.07,6.95-3.07,12.27v15.98c0,3.09.46,5.31,1.39,6.66.93,1.35,1.97,2.37,3.13,3.07,1.16.69,2.2,1.33,3.13,1.91.93.58,1.39,1.64,1.39,3.18,0,1.08-.46,1.99-1.39,2.72-.93.73-2.05,1.1-3.36,1.1h-29.41c-1.31,0-2.43-.37-3.36-1.1-.93-.73-1.39-1.64-1.39-2.72,0-1.54.5-2.61,1.5-3.18,1-.58,2.1-1.22,3.3-1.91,1.2-.7,2.3-1.72,3.3-3.07,1-1.35,1.5-3.57,1.5-6.66v-13.08c0-12.97-3.63-19.45-10.88-19.45-3.94,0-7.08,1.7-9.44,5.09-2.36,3.4-3.53,7.83-3.53,13.31v14.12c0,3.09.56,5.31,1.68,6.66,1.12,1.35,2.35,2.37,3.71,3.07,1.35.69,2.58,1.33,3.71,1.91,1.12.58,1.68,1.64,1.68,3.18,0,1.08-.46,1.99-1.39,2.72-.93.73-2.05,1.1-3.36,1.1h-33c-1.31,0-2.43-.37-3.36-1.1-.93-.73-1.39-1.64-1.39-2.72,0-1.54.56-2.61,1.68-3.18,1.12-.58,2.35-1.22,3.71-1.91,1.35-.7,2.58-1.72,3.71-3.07,1.12-1.35,1.68-3.57,1.68-6.66v-20.61c0-3.4-.5-5.77-1.51-7.12-1-1.35-2.1-2.35-3.3-3.01-1.2-.66-2.3-1.22-3.3-1.68-1-.46-1.5-1.47-1.5-3.01,0-1.08.46-1.99,1.39-2.72.93-.73,2.04-1.1,3.36-1.1Z"/>
    <path class="cls-4" d="M535.35,167.85c.62-.77,1.29-1.35,2.03-1.74.73-.39,1.45-.58,2.14-.58.85,0,1.54.23,2.08.69.69.62,1.04,1.39,1.04,2.32s-.31,1.85-.93,2.78c-3.09,4.48-7.22,7.91-12.39,10.3-5.17,2.39-11.04,3.59-17.6,3.59-5.79,0-11.06-.79-15.8-2.37s-8.8-3.76-12.16-6.54c-3.36-2.78-5.96-6.08-7.82-9.9-1.85-3.82-2.78-8.01-2.78-12.56s.91-8.72,2.72-12.5c1.81-3.78,4.36-7.06,7.64-9.84,3.28-2.78,7.25-4.94,11.93-6.48,4.67-1.54,9.86-2.32,15.57-2.32,9.57,0,17.13,2.6,22.69,7.81,5.56,5.21,8.49,12.49,8.8,21.82h-47.12c.08,2.93.56,5.81,1.45,8.62.89,2.82,2.24,5.33,4.05,7.53,1.81,2.2,4.13,3.98,6.95,5.33,2.82,1.35,6.23,2.03,10.25,2.03,3.47,0,6.71-.69,9.73-2.08,3.01-1.39,5.52-3.36,7.53-5.9ZM523.31,145.97c-.16-5.09-1.35-9.18-3.59-12.27-2.24-3.09-5.09-4.63-8.57-4.63-4.09,0-7.47,1.58-10.13,4.75-2.66,3.17-4.38,7.22-5.15,12.16h27.44Z"/>
    <path class="cls-4" d="M599.26,122.7c2.7,0,5.23.41,7.58,1.22,2.35.81,4.4,1.93,6.14,3.36,1.74,1.43,3.13,3.09,4.17,4.98,1.04,1.89,1.56,3.96,1.56,6.19,0,1.54-.27,2.89-.81,4.05-.54,1.16-1.27,2.14-2.2,2.95-.93.81-1.97,1.43-3.13,1.85-1.16.42-2.35.64-3.59.64-1.7,0-3.3-.41-4.8-1.22s-2.68-2.06-3.53-3.76c-.54-1.16-.97-2.39-1.27-3.71-.31-1.31-.69-2.55-1.16-3.71-.46-1.16-1.1-2.12-1.91-2.89-.81-.77-2.07-1.16-3.76-1.16-2.08,0-3.92.6-5.5,1.79-1.58,1.2-2.93,2.68-4.05,4.46-1.12,1.78-1.95,3.75-2.49,5.9-.54,2.16-.81,4.25-.81,6.25v14.36c0,3.09.56,5.31,1.68,6.66,1.12,1.35,2.35,2.37,3.71,3.07,1.35.69,2.58,1.33,3.71,1.91,1.12.58,1.68,1.64,1.68,3.18,0,1.08-.46,1.99-1.39,2.72-.93.73-2.05,1.1-3.36,1.1h-33c-1.31,0-2.43-.37-3.36-1.1-.93-.73-1.39-1.64-1.39-2.72,0-1.54.56-2.61,1.68-3.18,1.12-.58,2.35-1.22,3.71-1.91,1.35-.7,2.58-1.72,3.71-3.07,1.12-1.35,1.68-3.57,1.68-6.66v-20.61c0-3.4-.5-5.77-1.51-7.12-1-1.35-2.1-2.35-3.3-3.01-1.2-.66-2.3-1.22-3.3-1.68-1-.46-1.5-1.47-1.5-3.01,0-1.08.46-1.99,1.39-2.72.93-.73,2.04-1.1,3.36-1.1h19.8c4.01,0,6.02,2.08,6.02,6.25.08,0,.58-.44,1.5-1.33.93-.89,2.22-1.87,3.88-2.95,1.66-1.08,3.68-2.06,6.08-2.95,2.39-.89,5.09-1.33,8.1-1.33Z"/>
  </g>
  <path class="cls-4" d="M709.47,128.72c0,2.08-1.54,3.59-4.63,4.51-3.86,1.08-6.68,3.4-8.45,6.95l-7.85,15.62c-5.02-9.34-11.43-18.87-12.6-18.26-1.26.65,3.47,12.85,8.59,22.75.29.57.59,1.14.9,1.71l-7.66,15.25c-.86-1.85-1.77-3.7-2.69-5.48-5.13-9.9-12.35-20.79-13.6-20.14s3.48,12.84,8.6,22.75c1.49,2.89,3.16,5.86,4.81,8.61l-5.13,10.21c-3.63,7.33-7.56,12.66-11.81,15.98-4.24,3.32-9.18,4.98-14.82,4.98-2.93,0-5.65-.41-8.16-1.22s-4.69-1.93-6.54-3.35c-1.85-1.43-3.3-3.09-4.34-4.98-1.04-1.89-1.57-3.96-1.57-6.2,0-1.54.27-2.89.82-4.05.53-1.16,1.27-2.14,2.2-2.95.92-.81,1.96-1.43,3.12-1.85,1.16-.43,2.36-.64,3.59-.64,1.7,0,3.32.4,4.86,1.22,1.55.81,2.74,2.06,3.59,3.76.54,1.16.95,2.39,1.22,3.7s.63,2.55,1.1,3.71c.46,1.16,1.12,2.12,1.97,2.89.84.77,2.12,1.16,3.82,1.16,1.85,0,3.54-.6,5.09-1.79,1.54-1.2,2.76-2.73,3.65-4.58.88-1.85,1.37-3.38,1.44-4.57.08-1.2.12-1.91.12-2.14,0-1.86-.42-3.59-1.27-5.21l-23.27-45.73c-1.24-2.4-2.53-4.27-3.88-5.62-1.35-1.35-2.92-2.26-4.69-2.72-1.08-.31-1.99-.83-2.72-1.56-.74-.74-1.1-1.64-1.1-2.72s.46-1.97,1.39-2.67c.92-.69,2.04-1.04,3.35-1.04h77.81c1.31,0,2.43.35,3.35,1.04.93.7,1.39,1.59,1.39,2.67Z"/>
  <g>
    <path class="cls-3" d="M5.29,204.1h3.32c.1.1,3.59,5.78,10.47,17.03.99,1.62,2.46,4.02,4.41,7.23h.04v-24.22l.04-.04h2.66l.04.04v28.52l-.04.04h-3.24c-.18-.21-.66-.99-1.45-2.34-.08-.08-3.57-5.77-10.47-17.07-.65-1.09-1.64-2.71-2.97-4.84v24.22s-.05.01-.08.04h-2.73s-.05-.01-.08-.04v-28.52l.08-.04Z"/>
    <path class="cls-3" d="M39.86,213.98h.51c2.01,0,3.91.78,5.7,2.34,2.06,1.98,3.09,4.35,3.09,7.11s-1.08,5.2-3.24,7.23c-1.77,1.46-3.7,2.19-5.78,2.19-2.27,0-4.31-.83-6.13-2.5-1.93-1.98-2.89-4.26-2.89-6.84v-.2c0-2.58.96-4.86,2.89-6.84,1.82-1.67,3.78-2.5,5.86-2.5ZM33.84,223.44v.08c0,1.85.69,3.48,2.07,4.88,1.25,1.17,2.66,1.76,4.22,1.76,1.95,0,3.62-.91,5-2.73.83-1.28,1.25-2.6,1.25-3.98,0-1.98-.73-3.68-2.19-5.12-1.22-1.04-2.54-1.56-3.95-1.56h-.31c-1.54,0-2.98.66-4.34,1.99-1.17,1.38-1.76,2.94-1.76,4.69Z"/>
    <path class="cls-3" d="M64.23,204.1h2.7v25.86h12.23v2.73h-14.96v-28.59h.04Z"/>
    <path class="cls-3" d="M89.87,213.95c2.55,0,4.6,1.05,6.13,3.16,0,.03.01.07.04.12v-3.05s.05-.03.08-.08h2.62s.03.05.08.08v18.48s-.05.01-.08.04h-2.62s-.05-.01-.08-.04v-3.05c-1.41,2.16-3.53,3.24-6.37,3.24h-.04c-2.53,0-4.74-1-6.64-3.01-1.59-1.93-2.38-4.04-2.38-6.33v-.2c0-2.47.87-4.66,2.62-6.56,1.85-1.88,4.06-2.81,6.64-2.81ZM83.35,223.32v.12c0,2.19.87,3.98,2.62,5.39,1.09.86,2.3,1.29,3.63,1.29,2.84,0,4.8-1.38,5.9-4.14.26-.83.39-1.65.39-2.46v-.39c0-1.15-.35-2.33-1.05-3.55-1.22-1.9-2.87-2.85-4.92-2.85-2.73,0-4.73,1.3-5.98,3.91-.39.94-.59,1.84-.59,2.7Z"/>
    <path class="cls-3" d="M111.87,213.98h.51c1.93,0,3.76.72,5.51,2.15.86.83,1.42,1.48,1.68,1.95-.5.34-1.25.85-2.27,1.52-.81-1.25-1.95-2.12-3.44-2.62-.52-.16-1.05-.23-1.6-.23h-.31c-1.56,0-3.01.66-4.34,1.99-1.17,1.38-1.76,2.94-1.76,4.69v.08c0,1.85.7,3.49,2.11,4.92,1.25,1.15,2.64,1.72,4.18,1.72,1.88,0,3.5-.85,4.88-2.54.05-.08.14-.21.27-.39.39.23,1.17.72,2.34,1.45-1.15,1.77-2.76,3.02-4.84,3.75-.94.29-1.82.43-2.66.43-2.29,0-4.34-.83-6.13-2.5-1.93-1.98-2.89-4.26-2.89-6.84v-.2c0-2.58.96-4.86,2.89-6.84,1.82-1.67,3.78-2.5,5.86-2.5Z"/>
    <path class="cls-3" d="M124.87,204.1h2.7v10.04h5.08v2.77h-5.08v10.7c0,.55.14,1.04.43,1.48.29.37.65.62,1.09.78.21.05.4.08.59.08h.08c.49,0,1.17-.17,2.03-.51.05-.03.14-.06.27-.12.65,1.46,1.02,2.29,1.09,2.5-.18.1-.55.25-1.09.43-.94.29-1.67.43-2.19.43h-.31c-.7,0-1.43-.21-2.19-.62-1.04-.55-1.76-1.35-2.15-2.42-.23-.68-.35-1.42-.35-2.23v-10.51h-3.09s-.01-.04-.04-.04v-2.73h3.12v-10.04Z"/>
    <path class="cls-3" d="M143.48,213.98h.51c2,0,3.91.78,5.7,2.34,2.06,1.98,3.09,4.35,3.09,7.11s-1.08,5.2-3.24,7.23c-1.77,1.46-3.7,2.19-5.78,2.19-2.27,0-4.31-.83-6.13-2.5-1.93-1.98-2.89-4.26-2.89-6.84v-.2c0-2.58.96-4.86,2.89-6.84,1.82-1.67,3.78-2.5,5.86-2.5ZM137.47,223.44v.08c0,1.85.69,3.48,2.07,4.88,1.25,1.17,2.66,1.76,4.22,1.76,1.95,0,3.62-.91,5-2.73.83-1.28,1.25-2.6,1.25-3.98,0-1.98-.73-3.68-2.19-5.12-1.22-1.04-2.54-1.56-3.95-1.56h-.31c-1.54,0-2.98.66-4.34,1.99-1.17,1.38-1.76,2.94-1.76,4.69Z"/>
    <path class="cls-3" d="M162.81,213.83h.23c1.33,0,2.6.33,3.83.98.37.18.78.47,1.25.86.39.34.7.65.94.94.21.29.31.44.31.47-1.2.68-1.98,1.15-2.34,1.41h-.04c-.23-.36-.59-.72-1.05-1.05-.83-.55-1.85-.82-3.05-.82-1.35,0-2.46.33-3.32.98-.6.52-.9,1.09-.9,1.72,0,.5.2.86.59,1.09.13.13.34.26.62.39.55.29,1.52.6,2.93.94.65.13,1.47.29,2.46.47.65.16,1.19.34,1.6.55.39.18.78.43,1.17.74.13.08.38.3.74.66.78.91,1.17,1.91,1.17,3.01v.12c0,1.15-.43,2.24-1.29,3.28-.34.37-.6.61-.78.74-.42.31-.79.56-1.13.74-1.25.57-2.54.86-3.87.86h-.23c-1.43,0-2.83-.35-4.18-1.05-1.25-.73-2.24-1.73-2.97-3.01.03-.03.4-.23,1.13-.62.29-.16.7-.38,1.25-.66.6,1.04,1.47,1.78,2.62,2.23.73.26,1.5.39,2.3.39,1.15,0,2.16-.26,3.05-.78.18-.1.43-.3.74-.59.42-.49.62-1.02.62-1.56,0-.86-.53-1.55-1.6-2.07-.29-.1-.68-.22-1.17-.35-2.08-.36-3.71-.75-4.88-1.17-2.4-.91-3.59-2.34-3.59-4.3v-.08c0-1.17.44-2.27,1.33-3.28.44-.42.74-.68.9-.78.57-.42,1.25-.73,2.03-.94.86-.29,1.72-.43,2.58-.43Z"/>
    <path class="cls-3" d="M181.58,213.95c2.68,0,4.99,1.2,6.91,3.59,1.28,1.85,1.91,3.66,1.91,5.43v.23c0,.6-.04.9-.12.9h-14.84c0,.62.26,1.51.78,2.66.78,1.46,1.91,2.46,3.4,3.01.7.26,1.34.39,1.91.39,1.77,0,3.32-.78,4.65-2.34.44-.62.73-1.13.86-1.52h.08c1.04.42,1.86.78,2.46,1.09-.29.81-.93,1.76-1.91,2.85-1.8,1.75-3.84,2.62-6.13,2.62-2.71,0-5.03-1.18-6.95-3.55-1.28-1.8-1.91-3.72-1.91-5.78v-.16c0-2.6.94-4.88,2.81-6.84,1.74-1.72,3.78-2.58,6.09-2.58ZM175.72,221.41h11.68c-.55-1.72-1.47-2.97-2.77-3.75-.94-.62-1.97-.94-3.09-.94-1.9,0-3.53.89-4.88,2.66-.42.62-.73,1.3-.94,2.03Z"/>
    <path class="cls-3" d="M195.34,228.95c.65,0,1.18.27,1.6.82.21.39.31.87.31,1.45,0,1.61-.94,3.25-2.81,4.92-.52.49-.87.77-1.05.82-.16-.21-.42-.53-.78-.98,1.33-1.25,1.99-2.34,1.99-3.28-.47-.21-.81-.52-1.02-.94-.16-.29-.23-.59-.23-.9,0-.65.3-1.18.9-1.6.31-.21.68-.31,1.09-.31Z"/>
    <path class="cls-3" d="M227.21,204.1h.04v20.47c0,1.56-.44,3.06-1.33,4.49-.23.42-.59.86-1.05,1.33-.44.47-.76.76-.94.86-.23.18-.51.37-.82.55-.34.18-.66.33-.98.43-.81.31-1.54.47-2.19.47h-1.95c-.81,0-1.68-.21-2.62-.62-1.82-.86-3.15-2.27-3.98-4.22-.44-1.07-.66-2.12-.66-3.16v-1.56h2.62l.04.04v1.41c0,1.25.42,2.45,1.25,3.59.31.42.64.73.98.94.83.62,1.67.94,2.5.94h1.68c.99,0,1.94-.39,2.85-1.17.42-.39.66-.68.74-.86.81-1.04,1.21-2.24,1.21-3.59v-20.31h2.62Z"/>
    <path class="cls-3" d="M233.08,214.14h2.62l.04.08v11.64c0,2.06,1.09,3.36,3.28,3.91.42.13,1.15.2,2.19.2,1.35,0,2.36-.18,3.01-.55,1.02-.47,1.68-1.13,1.99-1.99.18-.6.27-1.18.27-1.76v-11.45s.01-.05.04-.08h2.66l.04.08v18.16l-.04.04h-2.66l-.04-.04v-1.84c-1.43,1.43-3.24,2.15-5.43,2.15-2.32,0-4.13-.49-5.43-1.48-1.75-1.33-2.62-3.07-2.62-5.23v-11.76s.03-.05.08-.08Z"/>
    <path class="cls-3" d="M260.66,213.83h.23c1.33,0,2.6.33,3.83.98.37.18.78.47,1.25.86.39.34.7.65.94.94.21.29.31.44.31.47-1.2.68-1.98,1.15-2.34,1.41h-.04c-.23-.36-.59-.72-1.05-1.05-.83-.55-1.85-.82-3.05-.82-1.35,0-2.46.33-3.32.98-.6.52-.9,1.09-.9,1.72,0,.5.2.86.59,1.09.13.13.34.26.62.39.55.29,1.52.6,2.93.94.65.13,1.47.29,2.46.47.65.16,1.19.34,1.6.55.39.18.78.43,1.17.74.13.08.38.3.74.66.78.91,1.17,1.91,1.17,3.01v.12c0,1.15-.43,2.24-1.29,3.28-.34.37-.6.61-.78.74-.42.31-.79.56-1.13.74-1.25.57-2.54.86-3.87.86h-.23c-1.43,0-2.83-.35-4.18-1.05-1.25-.73-2.24-1.73-2.97-3.01.03-.03.4-.23,1.13-.62.29-.16.7-.38,1.25-.66.6,1.04,1.47,1.78,2.62,2.23.73.26,1.5.39,2.3.39,1.15,0,2.16-.26,3.05-.78.18-.1.43-.3.74-.59.42-.49.62-1.02.62-1.56,0-.86-.53-1.55-1.6-2.07-.29-.1-.68-.22-1.17-.35-2.08-.36-3.71-.75-4.88-1.17-2.4-.91-3.59-2.34-3.59-4.3v-.08c0-1.17.44-2.27,1.33-3.28.44-.42.74-.68.9-.78.57-.42,1.25-.73,2.03-.94.86-.29,1.72-.43,2.58-.43Z"/>
    <path class="cls-3" d="M273.17,204.1h2.7v10.04h5.08v2.77h-5.08v10.7c0,.55.14,1.04.43,1.48.29.37.65.62,1.09.78.21.05.4.08.59.08h.08c.49,0,1.17-.17,2.03-.51.05-.03.14-.06.27-.12.65,1.46,1.02,2.29,1.09,2.5-.18.1-.55.25-1.09.43-.94.29-1.67.43-2.19.43h-.31c-.7,0-1.43-.21-2.19-.62-1.04-.55-1.76-1.35-2.15-2.42-.23-.68-.35-1.42-.35-2.23v-10.51h-3.09s-.01-.04-.04-.04v-2.73h3.12v-10.04Z"/>
    <path class="cls-3" d="M296.06,204.1h6.88c3.28,0,6.25,1.13,8.91,3.4,1.22,1.15,1.96,1.97,2.23,2.46,1.82,2.55,2.73,5.37,2.73,8.44,0,3.72-1.32,7.03-3.95,9.92-2.76,2.92-6.19,4.38-10.27,4.38h-6.52s-.05-.01-.08-.04v-28.52l.08-.04ZM298.72,206.84v23.12h3.87c4.06,0,7.27-1.73,9.61-5.2,1.22-2.03,1.84-4.15,1.84-6.37,0-3.36-1.26-6.26-3.79-8.71-.81-.68-1.54-1.2-2.19-1.56-1.67-.86-3.37-1.29-5.12-1.29h-4.22Z"/>
    <path class="cls-3" d="M329.25,213.95c2.55,0,4.6,1.05,6.13,3.16,0,.03.01.07.04.12v-3.05s.05-.03.08-.08h2.62s.03.05.08.08v18.48s-.05.01-.08.04h-2.62s-.05-.01-.08-.04v-3.05c-1.41,2.16-3.53,3.24-6.37,3.24h-.04c-2.53,0-4.74-1-6.64-3.01-1.59-1.93-2.38-4.04-2.38-6.33v-.2c0-2.47.87-4.66,2.62-6.56,1.85-1.88,4.06-2.81,6.64-2.81ZM322.72,223.32v.12c0,2.19.87,3.98,2.62,5.39,1.09.86,2.3,1.29,3.63,1.29,2.84,0,4.8-1.38,5.9-4.14.26-.83.39-1.65.39-2.46v-.39c0-1.15-.35-2.33-1.05-3.55-1.22-1.9-2.87-2.85-4.92-2.85-2.73,0-4.73,1.3-5.98,3.91-.39.94-.59,1.84-.59,2.7Z"/>
    <path class="cls-3" d="M345.12,204.1h.16c.47,0,.91.21,1.33.62.37.42.55.83.55,1.25v.12c0,.55-.25,1.03-.74,1.45-.37.31-.76.47-1.17.47h-.12c-.57,0-1.07-.26-1.48-.78-.26-.34-.39-.7-.39-1.09v-.16c0-.49.21-.95.62-1.37.39-.34.81-.51,1.25-.51ZM346.52,214.14h.04v18.55h-2.77v-18.55h2.73Z"/>
    <path class="cls-3" d="M359.98,213.98c1.38,0,2.59.31,3.63.94-.13.65-.34,1.63-.62,2.93-1.17-.7-2.24-1.05-3.2-1.05-2.16,0-3.69,1.02-4.57,3.05-.18.47-.27.95-.27,1.45v11.37s-.05.01-.08.04h-2.62l-.08-.04v-18.24s.05-.01.08-.04h2.62l.08.04v1.6c.57-.78,1.42-1.34,2.54-1.68.83-.23,1.67-.35,2.5-.35Z"/>
    <path class="cls-3" d="M368.78,214.14s.33.68.9,2.03c1.17,2.81,2.94,7.03,5.31,12.66.03-.05.78-1.78,2.27-5.2,2.68-6.33,4.04-9.49,4.06-9.49h2.97c-1.74,4.04-5.21,12.11-10.39,24.22-.21.47-.61,1.39-1.21,2.77h-2.93v-.04c.62-1.46,1.86-4.38,3.71-8.75-1.28-3.05-3.87-9.11-7.77-18.2h3.09Z"/>
  </g>
</svg>